<svg
  xmlns="http://www.w3.org/2000/svg"
  viewBox="0 0 200 100"
  preserveAspectRatio="xMidYMid slice"
  aria-hidden="true"
>
  <defs>
    <linearGradient id="l2loc-sky" x1="0" y1="0" x2="0" y2="1">
      <stop offset="0" stop-color="#1a1e28" />
      <stop offset="0.45" stop-color="#2a2520" />
      <stop offset="1" stop-color="#0a0806" />
    </linearGradient>
    <linearGradient id="l2loc-glow" x1="0.5" y1="0" x2="0.5" y2="1">
      <stop offset="0" stop-color="rgba(180,120,60,0.15)" />
      <stop offset="1" stop-color="transparent" />
    </linearGradient>
  </defs>
  <rect width="200" height="100" fill="url(#l2loc-sky)" />
  <ellipse cx="100" cy="48" rx="90" ry="32" fill="url(#l2loc-glow)" />
  <path d="M0 78 Q40 65 80 70 T160 68 L200 75 V100 H0Z" fill="#181008" />
  <path d="M0 88 Q50 80 100 85 T200 82 V100 H0Z" fill="#0c0804" />
  <g fill="#2a1a12" stroke="#3a2818" stroke-width="0.3">
    <path d="M12 70 L20 55 L28 70 Z" />
    <path d="M32 75 L40 60 L50 75 Z" />
    <path d="M60 78 L70 58 L80 78 Z" />
    <rect x="85" y="65" width="32" height="16" />
    <path d="M85 65 L101 50 L117 65 Z" />
    <path d="M125 80 L140 60 L152 80 Z" />
    <path d="M160 75 L170 64 L180 75 Z" />
  </g>
  <g opacity="0.4" fill="none" stroke="#4a3a2a" stroke-width="0.4">
    <path d="M0 30 Q50 18 100 25 T200 20" />
  </g>
  <circle cx="165" cy="22" r="2.5" fill="#4a3a2a" opacity="0.5" />
</svg>
